<svg id="visual" viewBox="0 0 900 600" width="900" height="600" xmlns="http://www.w3.org/2000/svg" xmlns:xlink="http://www.w3.org/1999/xlink" version="1.1"><path d="M0 87L18.8 88.7C37.7 90.3 75.3 93.7 112.8 96.7C150.3 99.7 187.7 102.3 225.2 107.8C262.7 113.3 300.3 121.7 337.8 120.3C375.3 119 412.7 108 450.2 104.3C487.7 100.7 525.3 104.3 562.8 105.8C600.3 107.3 637.7 106.7 675.2 106.3C712.7 106 750.3 106 787.8 98.8C825.3 91.7 862.7 77.3 881.3 70.2L900 63L900 0L881.3 0C862.7 0 825.3 0 787.8 0C750.3 0 712.7 0 675.2 0C637.7 0 600.3 0 562.8 0C525.3 0 487.7 0 450.2 0C412.7 0 375.3 0 337.8 0C300.3 0 262.7 0 225.2 0C187.7 0 150.3 0 112.8 0C75.3 0 37.7 0 18.8 0L0 0Z" fill="#0066FF" stroke-linecap="round" stroke-linejoin="miter"></path></svg>